# Generated By Simlab Soft 'www.simlab-soft.com'
mtllib models/seawolf5.mtl
v -1.475 1.5 1.00015
v 1.475 1.5 1.00015
v -1.475 -1.4 1.00015
v 1.475 -1.4 1.00015
v 1.475 1.5 1.02515
v -1.475 1.5 1.02515
v 1.475 -1.4 1.02515
v -1.475 -1.4 1.02515
v -0.997703 -1.5 2.00459
v -0.980025 -1.5 1.98692
v -0.997703 1.5 2.00459
v -0.980025 1.5 1.98692
v -1.5 -1.5 1.5023
v -0.997703 -1.5 2.00459
v -1.5 1.5 1.5023
v -0.997703 1.5 2.00459
v -1.5 -1.5 0.502297
v -1.5 -1.5 1.5023
v -1.5 1.5 0.502297
v -1.5 1.5 1.5023
v -0.997703 -1.5 2.22045e-16
v -1.5 -1.5 0.502297
v -0.997703 1.5 2.22045e-16
v -1.5 1.5 0.502297
v -0.980025 -1.5 0.0176777
v -0.997703 -1.5 2.22045e-16
v -0.980025 1.5 0.0176777
v -0.997703 1.5 2.22045e-16
v -1.475 -1.5 0.512652
v -0.980025 -1.5 0.0176777
v -1.475 1.5 0.512652
v -0.980025 1.5 0.0176777
v -1.475 -1.5 0.756402
v -1.475 -1.5 0.512652
v -1.475 -1.4 0.756402
v -1.475 1.5 0.512652
v -1.475 -1.4 1.00015
v -1.475 1.5 1.00015
v 1.475 -1.4 1.00015
v 1.475 1.5 1.00015
v 1.475 -1.4 0.756402
v 1.475 1.5 0.512652
v 1.475 -1.5 0.756402
v 1.475 -1.5 0.512652
v 0.980025 -1.5 0.0176777
v 1.475 -1.5 0.512652
v 0.980025 1.5 0.0176777
v 1.475 1.5 0.512652
v 0.997703 -1.5 2.22045e-16
v 0.980025 -1.5 0.0176777
v 0.997703 1.5 2.22045e-16
v 0.980025 1.5 0.0176777
v 1.5 -1.5 0.502297
v 0.997703 -1.5 2.22045e-16
v 1.5 1.5 0.502297
v 0.997703 1.5 2.22045e-16
v 1.5 -1.5 1.5023
v 1.5 -1.5 0.502297
v 1.5 1.5 1.5023
v 1.5 1.5 0.502297
v 0.997703 -1.5 2.00459
v 1.5 -1.5 1.5023
v 0.997703 1.5 2.00459
v 1.5 1.5 1.5023
v 0.980025 -1.5 1.98692
v 0.997703 -1.5 2.00459
v 0.980025 1.5 1.98692
v 0.997703 1.5 2.00459
v 1.475 -1.5 1.49194
v 0.980025 -1.5 1.98692
v 1.475 1.5 1.49194
v 0.980025 1.5 1.98692
v 1.475 -1.5 1.25855
v 1.475 -1.5 1.49194
v 1.475 -1.4 1.25855
v 1.475 1.5 1.49194
v 1.475 -1.4 1.02515
v 1.475 1.5 1.02515
v -1.475 -1.4 1.02515
v -1.475 1.5 1.02515
v -1.475 -1.4 1.25855
v -1.475 1.5 1.49194
v -1.475 -1.5 1.25855
v -1.475 -1.5 1.49194
v -0.980025 -1.5 1.98692
v -1.475 -1.5 1.49194
v -0.980025 1.5 1.98692
v -1.475 1.5 1.49194
v 1.5 1.5 1.5023
v 1.5 1.5 0.502297
v 1.475 1.5 1.49194
v 1.475 1.5 1.02515
v 1.475 1.5 1.00015
v 1.475 1.5 0.512652
v 0.997703 1.5 2.00459
v 0.997703 1.5 2.22045e-16
v 0.980025 1.5 1.98692
v 0.980025 1.5 0.0176777
v -0.980025 1.5 1.98692
v -0.980025 1.5 0.0176777
v -0.997703 1.5 2.00459
v -0.997703 1.5 2.22045e-16
v -1.475 1.5 1.49194
v -1.475 1.5 1.02515
v -1.475 1.5 1.00015
v -1.475 1.5 0.512652
v -1.5 1.5 1.5023
v -1.5 1.5 0.502297
v 1.475 -1.4 1.00015
v 1.475 -1.4 0.756402
v -1.475 -1.4 1.00015
v -1.475 -1.4 0.756402
v -1.475 -1.4 0.756402
v 1.475 -1.4 0.756402
v -1.475 -1.5 0.756402
v 1.475 -1.5 0.756402
v -1.475 -1.4 1.02515
v -1.475 -1.4 1.25855
v 1.475 -1.4 1.02515
v 1.475 -1.4 1.25855
v 1.475 -1.4 1.25855
v -1.475 -1.4 1.25855
v 1.475 -1.5 1.25855
v -1.475 -1.5 1.25855
v 1.5 -1.5 1.5023
v 1.5 -1.5 0.502297
v 1.475 -1.5 1.49194
v 1.475 -1.5 1.25855
v 1.475 -1.5 0.756402
v 1.475 -1.5 0.512652
v 0.997703 -1.5 2.00459
v 0.997703 -1.5 2.22045e-16
v 0.980025 -1.5 1.98692
v 0.980025 -1.5 0.0176777
v -0.980025 -1.5 1.98692
v -0.980025 -1.5 0.0176777
v -0.997703 -1.5 2.00459
v -0.997703 -1.5 2.22045e-16
v -1.475 -1.5 1.49194
v -1.475 -1.5 1.25855
v -1.475 -1.5 0.756402
v -1.475 -1.5 0.512652
v -1.5 -1.5 1.5023
v -1.5 -1.5 0.502297
vn 0 -6.12323e-17 -1
vn 0 -6.12323e-17 -1
vn 0 -6.12323e-17 -1
vn 0 -6.12323e-17 -1
vn 0 6.12323e-17 1
vn 0 6.12323e-17 1
vn 0 6.12323e-17 1
vn 0 6.12323e-17 1
vn 0.707107 4.32978e-17 0.707107
vn 0.707107 4.32978e-17 0.707107
vn 0.707107 4.32978e-17 0.707107
vn 0.707107 4.32978e-17 0.707107
vn -0.707107 4.32978e-17 0.707107
vn -0.707107 4.32978e-17 0.707107
vn -0.707107 4.32978e-17 0.707107
vn -0.707107 4.32978e-17 0.707107
vn -1 0 0
vn -1 0 0
vn -1 0 0
vn -1 0 0
vn -0.707107 -4.32978e-17 -0.707107
vn -0.707107 -4.32978e-17 -0.707107
vn -0.707107 -4.32978e-17 -0.707107
vn -0.707107 -4.32978e-17 -0.707107
vn 0.707107 -4.32978e-17 -0.707107
vn 0.707107 -4.32978e-17 -0.707107
vn 0.707107 -4.32978e-17 -0.707107
vn 0.707107 -4.32978e-17 -0.707107
vn 0.707107 4.32978e-17 0.707107
vn 0.707107 4.32978e-17 0.707107
vn 0.707107 4.32978e-17 0.707107
vn 0.707107 4.32978e-17 0.707107
vn 1 0 0
vn 1 0 0
vn 1 0 0
vn 1 0 0
vn 1 0 0
vn 1 0 0
vn -1 0 0
vn -1 0 0
vn -1 0 0
vn -1 0 0
vn -1 0 0
vn -1 0 0
vn -0.707107 4.32978e-17 0.707107
vn -0.707107 4.32978e-17 0.707107
vn -0.707107 4.32978e-17 0.707107
vn -0.707107 4.32978e-17 0.707107
vn -0.707107 -4.32978e-17 -0.707107
vn -0.707107 -4.32978e-17 -0.707107
vn -0.707107 -4.32978e-17 -0.707107
vn -0.707107 -4.32978e-17 -0.707107
vn 0.707107 -4.32978e-17 -0.707107
vn 0.707107 -4.32978e-17 -0.707107
vn 0.707107 -4.32978e-17 -0.707107
vn 0.707107 -4.32978e-17 -0.707107
vn 1 0 0
vn 1 0 0
vn 1 0 0
vn 1 0 0
vn 0.707107 4.32978e-17 0.707107
vn 0.707107 4.32978e-17 0.707107
vn 0.707107 4.32978e-17 0.707107
vn 0.707107 4.32978e-17 0.707107
vn -0.707107 4.32978e-17 0.707107
vn -0.707107 4.32978e-17 0.707107
vn -0.707107 4.32978e-17 0.707107
vn -0.707107 4.32978e-17 0.707107
vn -0.707107 -4.32978e-17 -0.707107
vn -0.707107 -4.32978e-17 -0.707107
vn -0.707107 -4.32978e-17 -0.707107
vn -0.707107 -4.32978e-17 -0.707107
vn -1 0 0
vn -1 0 0
vn -1 0 0
vn -1 0 0
vn -1 0 0
vn -1 0 0
vn 1 0 0
vn 1 0 0
vn 1 0 0
vn 1 0 0
vn 1 0 0
vn 1 0 0
vn 0.707107 -4.32978e-17 -0.707107
vn 0.707107 -4.32978e-17 -0.707107
vn 0.707107 -4.32978e-17 -0.707107
vn 0.707107 -4.32978e-17 -0.707107
vn 0 1 -6.12323e-17
vn 0 1 -6.12323e-17
vn 0 1 -6.12323e-17
vn 0 1 -6.12323e-17
vn 0 1 -6.12323e-17
vn 0 1 -6.12323e-17
vn 0 1 -6.12323e-17
vn 0 1 -6.12323e-17
vn 0 1 -6.12323e-17
vn 0 1 -6.12323e-17
vn 0 1 -6.12323e-17
vn 0 1 -6.12323e-17
vn 0 1 -6.12323e-17
vn 0 1 -6.12323e-17
vn 0 1 -6.12323e-17
vn 0 1 -6.12323e-17
vn 0 1 -6.12323e-17
vn 0 1 -6.12323e-17
vn 0 1 -6.12323e-17
vn 0 1 -6.12323e-17
vn 0 1 -6.12323e-17
vn 0 1 -6.12323e-17
vn 0 1 -6.12323e-17
vn 0 1 -6.12323e-17
vn 0 -6.12323e-17 -1
vn 0 -6.12323e-17 -1
vn 0 -6.12323e-17 -1
vn 0 -6.12323e-17 -1
vn 0 1 -6.12323e-17
vn 0 1 -6.12323e-17
vn 0 1 -6.12323e-17
vn 0 1 -6.12323e-17
vn 0 6.12323e-17 1
vn 0 6.12323e-17 1
vn 0 6.12323e-17 1
vn 0 6.12323e-17 1
vn 0 -1 6.12323e-17
vn 0 -1 6.12323e-17
vn 0 -1 6.12323e-17
vn 0 -1 6.12323e-17
vn 0 -1 6.12323e-17
vn 0 -1 6.12323e-17
vn 0 -1 6.12323e-17
vn 0 -1 6.12323e-17
vn 0 -1 6.12323e-17
vn 0 -1 6.12323e-17
vn 0 -1 6.12323e-17
vn 0 -1 6.12323e-17
vn 0 -1 6.12323e-17
vn 0 -1 6.12323e-17
vn 0 -1 6.12323e-17
vn 0 -1 6.12323e-17
vn 0 -1 6.12323e-17
vn 0 -1 6.12323e-17
vn 0 -1 6.12323e-17
vn 0 -1 6.12323e-17

usemtl Mtl1
f 1//1 2//2 3//3
f 2//2 4//4 3//3
f 5//5 6//6 7//7
f 6//6 8//8 7//7
f 9//9 10//10 11//11
f 10//10 12//12 11//11
f 13//13 14//14 15//15
f 14//14 16//16 15//15
f 17//17 18//18 19//19
f 18//18 20//20 19//19
f 21//21 22//22 23//23
f 22//22 24//24 23//23
f 25//25 26//26 27//27
f 26//26 28//28 27//27
f 29//29 30//30 31//31
f 30//30 32//32 31//31
f 33//33 34//34 35//35
f 34//34 36//36 35//35
f 35//35 36//36 37//37
f 36//36 38//38 37//37
f 39//39 40//40 41//41
f 40//40 42//42 41//41
f 41//41 42//42 43//43
f 42//42 44//44 43//43
f 45//45 46//46 47//47
f 46//46 48//48 47//47
f 49//49 50//50 51//51
f 50//50 52//52 51//51
f 53//53 54//54 55//55
f 54//54 56//56 55//55
f 57//57 58//58 59//59
f 58//58 60//60 59//59
f 61//61 62//62 63//63
f 62//62 64//64 63//63
f 65//65 66//66 67//67
f 66//66 68//68 67//67
f 69//69 70//70 71//71
f 70//70 72//72 71//71
f 73//73 74//74 75//75
f 74//74 76//76 75//75
f 75//75 76//76 77//77
f 76//76 78//78 77//77
f 79//79 80//80 81//81
f 80//80 82//82 81//81
f 81//81 82//82 83//83
f 82//82 84//84 83//83
f 85//85 86//86 87//87
f 86//86 88//88 87//87
f 104//104 108//108 103//103
f 108//108 107//107 103//103
f 103//103 107//107 99//99
f 107//107 101//101 99//99
f 97//97 95//95 91//91
f 95//95 89//89 91//91
f 91//91 89//89 92//92
f 96//96 98//98 90//90
f 98//98 94//94 90//90
f 90//90 94//94 93//93
f 100//100 102//102 106//106
f 102//102 108//108 106//106
f 106//106 108//108 105//105
f 108//108 104//104 105//105
f 105//105 104//104 93//93
f 104//104 92//92 93//93
f 93//93 92//92 90//90
f 92//92 89//89 90//90
usemtl Mtl
f 109//109 110//110 111//111
f 110//110 112//112 111//111
f 113//113 114//114 115//115
f 114//114 116//116 115//115
f 117//117 118//118 119//119
f 118//118 120//120 119//119
f 121//121 122//122 123//123
f 122//122 124//124 123//123
f 128//128 126//126 127//127
f 126//126 125//125 127//127
f 127//127 125//125 133//133
f 125//125 131//131 133//133
f 135//135 137//137 139//139
f 137//137 143//143 139//139
f 139//139 143//143 140//140
f 138//138 136//136 144//144
f 136//136 142//142 144//144
f 144//144 142//142 141//141
f 134//134 132//132 130//130
f 132//132 126//126 130//130
f 130//130 126//126 129//129
f 126//126 128//128 129//129
f 129//129 128//128 141//141
f 128//128 140//140 141//141
f 141//141 140//140 144//144
f 140//140 143//143 144//144
